<?xml version="1.0" standalone="no"?>
<!DOCTYPE svg PUBLIC "-//W3C//DTD SVG 20010904//EN"
 "http://www.w3.org/TR/2001/REC-SVG-20010904/DTD/svg10.dtd">
<svg version="1.0" xmlns="http://www.w3.org/2000/svg"
 width="641.000000pt" height="226.000000pt" viewBox="0 0 641.000000 226.000000"
 preserveAspectRatio="xMidYMid meet">

<g transform="translate(0.000000,226.000000) scale(0.100000,-0.100000)"
fill="#000000" stroke="none">
<path d="M380 1560 l0 -620 140 0 140 0 2 371 3 370 145 -213 146 -213 101 -3
101 -3 149 217 148 216 3 -371 2 -371 140 0 140 0 0 620 0 621 -122 -3 -122
-3 -217 -318 -218 -318 -51 73 c-27 40 -126 183 -219 318 l-168 245 -121 3
-122 3 0 -621z"/>
<path d="M2400 1560 l0 -620 140 0 140 0 0 620 0 620 -140 0 -140 0 0 -620z"/>
<path d="M3270 1975 l0 -155 1370 0 1370 0 0 155 0 155 -1370 0 -1370 0 0
-155z"/>
<path d="M3390 710 l0 -620 140 0 140 0 0 377 c0 328 2 375 14 363 8 -8 131
-177 274 -375 l259 -360 121 -3 122 -3 0 621 0 620 -140 0 -140 0 -2 -374 -3
-374 -270 374 -270 373 -122 1 -123 0 0 -620z"/>
<path d="M5290 843 c-107 -269 -217 -548 -246 -621 l-52 -133 151 3 152 3 39
103 40 102 250 -2 250 -3 39 -102 40 -103 148 0 c82 0 149 3 149 8 -1 4 -110
282 -243 617 l-243 610 -140 3 -140 3 -194 -488z m423 -96 l85 -217 -174 0
-173 0 23 63 c23 59 118 306 137 356 5 13 11 22 14 20 2 -3 42 -102 88 -222z"/>
<path d="M160 240 l0 -150 1370 0 1370 0 0 150 0 150 -1370 0 -1370 0 0 -150z"/>
</g>
</svg>
